<svg id="SvgjsSvg1001" width="288" height="288" xmlns="http://www.w3.org/2000/svg" version="1.1" xmlns:xlink="http://www.w3.org/1999/xlink" xmlns:svgjs="http://svgjs.com/svgjs"><defs id="SvgjsDefs1002"></defs><g id="SvgjsG1008" transform="matrix(1,0,0,1,0,0)"><svg xmlns="http://www.w3.org/2000/svg" viewBox="0 0 64 64" width="288" height="288"><path fill="#44a8c4" d="M47,11.5V23.28A20,20,0,0,0,14.14,45.5H6a4,4,0,0,1-4-4v-30a4,4,0,0,1,4-4H43A4,4,0,0,1,47,11.5Z" class="colorff9909 svgShape"></path><path fill="#3ca2bf" d="M62,14.14v25A4,4,0,0,1,56.85,43l-5.44-1.63a20,20,0,0,0-2.47-15.45A18.89,18.89,0,0,0,47,23.28V13.75l9.68-3.39A4,4,0,0,1,62,14.14Z" class="colorfbcb00 svgShape"></path><path fill="#daeef3" d="M48.94,25.88A18.89,18.89,0,0,0,47,23.28a20,20,0,1,0,1.94,2.6Zm-14.55,17L24,48.85v-24l10.39,6,.75.44h0l9.62,5.56Z" class="colore6e7e8 svgShape"></path><polygon fill="#41a7c3" points="44.77 36.86 34.39 42.85 24 48.85 24 24.86 34.39 30.86 35.14 31.3 35.15 31.3 44.77 36.86" class="coloree161f svgShape"></polygon></svg></g></svg>